{
  "accessors": [
    {
      "bufferView": 2,
      "componentType": 5126,
      "count": 295,
      "max": [
        0.10182199627161026,
        1.522346019744873,
        0.048611998558044434
      ],
      "min": [
        -0.04000600054860115,
        1.4576020240783691,
        -0.07080399990081787
      ],
      "type": "VEC3"
    },
    {
      "bufferView": 2,
      "byteOffset": 3540,
      "componentType": 5126,
      "count": 295,
      "max": [
        0.9977415800094604,
        0.9991886019706726,
        0.9986920952796936
      ],
      "min": [
        -0.9984574317932129,
        -0.9987189769744873,
        -0.9873262047767639
      ],
      "type": "VEC3"
    },
    {
      "bufferView": 1,
      "componentType": 5126,
      "count": 295,
      "max": [
        0.8808590173721313,
        0.49072301387786865
      ],
      "min": [
        0.4794920086860657,
        0.0034179999493062496
      ],
      "type": "VEC2"
    },
    {
      "bufferView": 0,
      "componentType": 5125,
      "count": 960,
      "type": "SCALAR"
    },
    {
      "bufferView": 2,
      "byteOffset": 7080,
      "componentType": 5126,
      "count": 1076,
      "max": [
        0.1711059957742691,
        1.5435919761657715,
        0.1395760029554367
      ],
      "min": [
        -0.16406899690628052,
        0.7943120002746582,
        -0.11109498888254166
      ],
      "type": "VEC3"
    },
    {
      "bufferView": 2,
      "byteOffset": 19992,
      "componentType": 5126,
      "count": 1076,
      "max": [
        0.9997079968452454,
        0.9684756994247437,
        0.9998451471328735
      ],
      "min": [
        -0.9997079968452454,
        -0.9936969876289368,
        -0.9999102354049683
      ],
      "type": "VEC3"
    },
    {
      "bufferView": 1,
      "byteOffset": 2360,
      "componentType": 5126,
      "count": 1076,
      "max": [
        0.9873049855232239,
        0.9921879768371582
      ],
      "min": [
        0.0071829999797046185,
        0.01097899954766035
      ],
      "type": "VEC2"
    },
    {
      "bufferView": 0,
      "byteOffset": 3840,
      "componentType": 5125,
      "count": 5232,
      "type": "SCALAR"
    },
    {
      "bufferView": 2,
      "byteOffset": 32904,
      "componentType": 5126,
      "count": 1428,
      "max": [
        0.48896899819374084,
        1.0690549612045288,
        0.10478000342845917
      ],
      "min": [
        -0.4819309711456299,
        0.8949499726295471,
        -0.005446999799460173
      ],
      "type": "VEC3"
    },
    {
      "bufferView": 2,
      "byteOffset": 50040,
      "componentType": 5126,
      "count": 1428,
      "max": [
        0.9999160766601563,
        0.5635945796966553,
        0.9966832995414734
      ],
      "min": [
        -0.9999160766601563,
        -0.98615962266922,
        -0.9993534684181213
      ],
      "type": "VEC3"
    },
    {
      "bufferView": 1,
      "byteOffset": 10968,
      "componentType": 5126,
      "count": 1428,
      "max": [
        0.9965819716453552,
        0.4709469974040985
      ],
      "min": [
        0.23474100232124329,
        0.002322999993339181
      ],
      "type": "VEC2"
    },
    {
      "bufferView": 0,
      "byteOffset": 24768,
      "componentType": 5125,
      "count": 7170,
      "type": "SCALAR"
    },
    {
      "bufferView": 2,
      "byteOffset": 67176,
      "componentType": 5126,
      "count": 276,
      "max": [
        0.13136400282382965,
        1.8298790454864502,
        0.22182399034500122
      ],
      "min": [
        -0.12050899863243103,
        1.6159379482269287,
        -0.11529900133609772
      ],
      "type": "VEC3"
    },
    {
      "bufferView": 2,
      "byteOffset": 70488,
      "componentType": 5126,
      "count": 276,
      "max": [
        1.0,
        0.9852846264839172,
        0.9959946870803833
      ],
      "min": [
        -1.0,
        -0.9990965127944946,
        -0.9820061922073364
      ],
      "type": "VEC3"
    },
    {
      "bufferView": 1,
      "byteOffset": 22392,
      "componentType": 5126,
      "count": 276,
      "max": [
        0.9833980202674866,
        0.9907230138778687
      ],
      "min": [
        0.01655600033700466,
        0.012489000335335732
      ],
      "type": "VEC2"
    },
    {
      "bufferView": 0,
      "byteOffset": 53448,
      "componentType": 5125,
      "count": 1026,
      "type": "SCALAR"
    },
    {
      "bufferView": 2,
      "byteOffset": 73800,
      "componentType": 5126,
      "count": 2226,
      "max": [
        0.11058399826288223,
        1.7714539766311646,
        0.14129799604415894
      ],
      "min": [
        -0.10354699194431305,
        1.1173499822616577,
        -0.1655769944190979
      ],
      "type": "VEC3"
    },
    {
      "bufferView": 2,
      "byteOffset": 100512,
      "componentType": 5126,
      "count": 2226,
      "max": [
        0.9998509883880615,
        0.999764621257782,
        0.9995916485786438
      ],
      "min": [
        -0.9998509883880615,
        -0.9954344630241394,
        -0.9999449253082275
      ],
      "type": "VEC3"
    },
    {
      "bufferView": 1,
      "byteOffset": 24600,
      "componentType": 5126,
      "count": 2226,
      "max": [
        0.9980469942092896,
        0.9980469942092896
      ],
      "min": [
        0.0037249999586492777,
        0.001550000044517219
      ],
      "type": "VEC2"
    },
    {
      "bufferView": 0,
      "byteOffset": 57552,
      "componentType": 5125,
      "count": 9168,
      "type": "SCALAR"
    },
    {
      "bufferView": 2,
      "byteOffset": 127224,
      "componentType": 5126,
      "count": 2494,
      "max": [
        0.10443499684333801,
        1.753187894821167,
        0.1400810033082962
      ],
      "min": [
        -0.09739799052476883,
        1.5000330209732056,
        -0.08516599982976913
      ],
      "type": "VEC3"
    },
    {
      "bufferView": 2,
      "byteOffset": 157152,
      "componentType": 5126,
      "count": 2494,
      "max": [
        0.9998393058776855,
        0.9999489784240723,
        0.9999613761901855
      ],
      "min": [
        -1.0,
        -0.99946528673172,
        -0.9999350309371948
      ],
      "type": "VEC3"
    },
    {
      "bufferView": 1,
      "byteOffset": 42408,
      "componentType": 5126,
      "count": 2494,
      "max": [
        0.9957290291786194,
        0.9985659718513489
      ],
      "min": [
        0.0022430000826716423,
        0.005874000024050474
      ],
      "type": "VEC2"
    },
    {
      "bufferView": 0,
      "byteOffset": 94224,
      "componentType": 5125,
      "count": 11865,
      "type": "SCALAR"
    },
    {
      "bufferView": 2,
      "byteOffset": 187080,
      "componentType": 5126,
      "count": 930,
      "max": [
        0.15818199515342712,
        0.7980120182037354,
        0.12459798902273178
      ],
      "min": [
        -0.15114499628543854,
        -0.000969999935477972,
        -0.09245799481868744
      ],
      "type": "VEC3"
    },
    {
      "bufferView": 2,
      "byteOffset": 198240,
      "componentType": 5126,
      "count": 930,
      "max": [
        0.9999607801437378,
        0.945107102394104,
        0.9988879561424255
      ],
      "min": [
        -0.9999607801437378,
        -0.9992258548736572,
        -0.998195469379425
      ],
      "type": "VEC3"
    },
    {
      "bufferView": 1,
      "byteOffset": 62360,
      "componentType": 5126,
      "count": 930,
      "max": [
        0.9944850206375122,
        0.9961420297622681
      ],
      "min": [
        0.5112119913101196,
        0.35678398609161377
      ],
      "type": "VEC2"
    },
    {
      "bufferView": 0,
      "byteOffset": 141684,
      "componentType": 5125,
      "count": 4800,
      "type": "SCALAR"
    },
    {
      "bufferView": 2,
      "byteOffset": 209400,
      "componentType": 5126,
      "count": 1120,
      "max": [
        0.09432999789714813,
        0.09802799671888351,
        0.14438900351524353
      ],
      "min": [
        -0.08729399740695953,
        -0.0037239999510347843,
        -0.0984409973025322
      ],
      "type": "VEC3"
    },
    {
      "bufferView": 2,
      "byteOffset": 222840,
      "componentType": 5126,
      "count": 1120,
      "max": [
        0.9997344613075256,
        0.9999858140945435,
        0.9984489679336548
      ],
      "min": [
        -0.9997344613075256,
        -1.0,
        -0.987924337387085
      ],
      "type": "VEC3"
    },
    {
      "bufferView": 1,
      "byteOffset": 69800,
      "componentType": 5126,
      "count": 1120,
      "max": [
        0.9933270215988159,
        0.3330869972705841
      ],
      "min": [
        0.6221060156822205,
        0.0044450000859797
      ],
      "type": "VEC2"
    },
    {
      "bufferView": 0,
      "byteOffset": 160884,
      "componentType": 5125,
      "count": 4080,
      "type": "SCALAR"
    },
    {
      "bufferView": 2,
      "byteOffset": 236280,
      "componentType": 5126,
      "count": 4539,
      "max": [
        0.21861900389194489,
        1.1732250452041626,
        0.14400899410247803
      ],
      "min": [
        -0.21158598363399506,
        0.8561159372329712,
        -0.15613600611686707
      ],
      "type": "VEC3"
    },
    {
      "bufferView": 2,
      "byteOffset": 290748,
      "componentType": 5126,
      "count": 4539,
      "max": [
        0.9976630210876465,
        0.9999451637268066,
        0.9999510049819946
      ],
      "min": [
        -0.9999210834503174,
        -0.9999746084213257,
        -0.9998496770858765
      ],
      "type": "VEC3"
    },
    {
      "bufferView": 1,
      "byteOffset": 78760,
      "componentType": 5126,
      "count": 4539,
      "max": [
        0.6103000044822693,
        0.7679479718208313
      ],
      "min": [
        0.0038530000019818544,
        0.003914999775588512
      ],
      "type": "VEC2"
    },
    {
      "bufferView": 0,
      "byteOffset": 177204,
      "componentType": 5125,
      "count": 14388,
      "type": "SCALAR"
    },
    {
      "bufferView": 2,
      "byteOffset": 345216,
      "componentType": 5126,
      "count": 2030,
      "max": [
        0.4570809602737427,
        1.5223469734191895,
        0.14605200290679932
      ],
      "min": [
        -0.4500429630279541,
        1.033033013343811,
        -0.08534599840641022
      ],
      "type": "VEC3"
    },
    {
      "bufferView": 2,
      "byteOffset": 369576,
      "componentType": 5126,
      "count": 2030,
      "max": [
        0.9983482360839844,
        0.9991903901100159,
        0.9997561573982239
      ],
      "min": [
        -0.9984574317932129,
        -0.9987189769744873,
        -0.9996854066848755
      ],
      "type": "VEC3"
    },
    {
      "bufferView": 1,
      "byteOffset": 115072,
      "componentType": 5126,
      "count": 2030,
      "max": [
        0.8807089924812317,
        0.997767984867096
      ],
      "min": [
        0.006250999867916107,
        0.003418999956920743
      ],
      "type": "VEC2"
    },
    {
      "bufferView": 0,
      "byteOffset": 234756,
      "componentType": 5125,
      "count": 10284,
      "type": "SCALAR"
    }
  ],
  "asset": {
    "extras": {
      "author": "ilyakardailskiy (https://sketchfab.com/ilyakardailskiy)",
      "license": "CC-BY-4.0 (http://creativecommons.org/licenses/by/4.0/)",
      "source": "https://sketchfab.com/3d-models/mita-3-ab9e6146a6aa4ac992313a4a5e8671d4",
      "title": "Mita 3"
    },
    "generator": "Sketchfab-16.72.0",
    "version": "2.0"
  },
  "bufferViews": [
    {
      "buffer": 0,
      "byteLength": 275892,
      "name": "floatBufferViews",
      "target": 34963
    },
    {
      "buffer": 0,
      "byteLength": 131312,
      "byteOffset": 275892,
      "byteStride": 8,
      "name": "floatBufferViews",
      "target": 34962
    },
    {
      "buffer": 0,
      "byteLength": 393936,
      "byteOffset": 407204,
      "byteStride": 12,
      "name": "floatBufferViews",
      "target": 34962
    }
  ],
  "buffers": [
    {
      "byteLength": 801140,
      "uri": "scene.bin"
    }
  ],
  "images": [
    {
      "uri": "textures/New_Material_23_baseColor.png"
    },
    {
      "uri": "textures/New_Material_22_baseColor.png"
    },
    {
      "uri": "textures/New_Material_24_baseColor.png"
    },
    {
      "uri": "textures/New_Material_21_baseColor.png"
    },
    {
      "uri": "textures/New_Material_20_baseColor.png"
    }
  ],
  "materials": [
    {
      "doubleSided": true,
      "name": "New_Material_23",
      "pbrMetallicRoughness": {
        "baseColorTexture": {
          "index": 0
        },
        "metallicFactor": 0.0,
        "roughnessFactor": 0.6
      }
    },
    {
      "doubleSided": true,
      "name": "New_Material_22",
      "pbrMetallicRoughness": {
        "baseColorTexture": {
          "index": 1
        },
        "metallicFactor": 0.0,
        "roughnessFactor": 0.6
      }
    },
    {
      "doubleSided": true,
      "name": "New_Material_24",
      "pbrMetallicRoughness": {
        "baseColorTexture": {
          "index": 2
        },
        "metallicFactor": 0.0,
        "roughnessFactor": 0.6
      }
    },
    {
      "doubleSided": true,
      "name": "New_Material_21",
      "pbrMetallicRoughness": {
        "baseColorTexture": {
          "index": 3
        },
        "metallicFactor": 0.0,
        "roughnessFactor": 0.6
      }
    },
    {
      "doubleSided": true,
      "name": "New_Material_20",
      "pbrMetallicRoughness": {
        "baseColorTexture": {
          "index": 4
        },
        "metallicFactor": 0.0,
        "roughnessFactor": 0.6
      }
    }
  ],
  "meshes": [
    {
      "name": "Attribute_002_New_Material_23_0",
      "primitives": [
        {
          "attributes": {
            "NORMAL": 1,
            "POSITION": 0,
            "TEXCOORD_0": 2
          },
          "indices": 3,
          "material": 0,
          "mode": 4
        }
      ]
    },
    {
      "name": "Body_007_New_Material_22_0",
      "primitives": [
        {
          "attributes": {
            "NORMAL": 5,
            "POSITION": 4,
            "TEXCOORD_0": 6
          },
          "indices": 7,
          "material": 1,
          "mode": 4
        }
      ]
    },
    {
      "name": "Gloves_New_Material_22_0",
      "primitives": [
        {
          "attributes": {
            "NORMAL": 9,
            "POSITION": 8,
            "TEXCOORD_0": 10
          },
          "indices": 11,
          "material": 1,
          "mode": 4
        }
      ]
    },
    {
      "name": "CapCap_New_Material_24_0",
      "primitives": [
        {
          "attributes": {
            "NORMAL": 13,
            "POSITION": 12,
            "TEXCOORD_0": 14
          },
          "indices": 15,
          "material": 2,
          "mode": 4
        }
      ]
    },
    {
      "name": "Hair_004_1_New_Material_21_0",
      "primitives": [
        {
          "attributes": {
            "NORMAL": 17,
            "POSITION": 16,
            "TEXCOORD_0": 18
          },
          "indices": 19,
          "material": 3,
          "mode": 4
        }
      ]
    },
    {
      "name": "Head_1_006_New_Material_20_0",
      "primitives": [
        {
          "attributes": {
            "NORMAL": 21,
            "POSITION": 20,
            "TEXCOORD_0": 22
          },
          "indices": 23,
          "material": 4,
          "mode": 4
        }
      ]
    },
    {
      "name": "Pantyhose_003_New_Material_23_0",
      "primitives": [
        {
          "attributes": {
            "NORMAL": 25,
            "POSITION": 24,
            "TEXCOORD_0": 26
          },
          "indices": 27,
          "material": 0,
          "mode": 4
        }
      ]
    },
    {
      "name": "Shoes_003_New_Material_23_0",
      "primitives": [
        {
          "attributes": {
            "NORMAL": 29,
            "POSITION": 28,
            "TEXCOORD_0": 30
          },
          "indices": 31,
          "material": 0,
          "mode": 4
        }
      ]
    },
    {
      "name": "Skirt_005_New_Material_23_0",
      "primitives": [
        {
          "attributes": {
            "NORMAL": 33,
            "POSITION": 32,
            "TEXCOORD_0": 34
          },
          "indices": 35,
          "material": 0,
          "mode": 4
        }
      ]
    },
    {
      "name": "Sweater_1_004_New_Material_23_0",
      "primitives": [
        {
          "attributes": {
            "NORMAL": 37,
            "POSITION": 36,
            "TEXCOORD_0": 38
          },
          "indices": 39,
          "material": 0,
          "mode": 4
        }
      ]
    }
  ],
  "nodes": [
    {
      "children": [
        1
      ],
      "matrix": [
        1.0,
        0.0,
        0.0,
        0.0,
        0.0,
        2.220446049250313e-16,
        -1.0,
        0.0,
        0.0,
        1.0,
        2.220446049250313e-16,
        0.0,
        0.0,
        0.0,
        0.0,
        1.0
      ],
      "name": "Sketchfab_model"
    },
    {
      "children": [
        2
      ],
      "matrix": [
        0.009999999776482582,
        0.0,
        0.0,
        0.0,
        0.0,
        0.0,
        0.009999999776482582,
        0.0,
        0.0,
        -0.009999999776482582,
        0.0,
        0.0,
        0.0,
        0.0,
        0.0,
        1.0
      ],
      "name": "AnyConv.com__All Mitas (5).fbx"
    },
    {
      "children": [
        3
      ],
      "name": "RootNode"
    },
    {
      "children": [
        4,
        6,
        8,
        10,
        15,
        17,
        19,
        21,
        23
      ],
      "matrix": [
        181.09278869628906,
        0.0,
        0.0,
        0.0,
        0.0,
        181.09278869628906,
        0.0,
        0.0,
        0.0,
        0.0,
        181.09278869628906,
        0.0,
        0.0,
        0.0,
        0.0,
        1.0
      ],
      "name": "AnyConv_com__All_Mitas__5_"
    },
    {
      "children": [
        5
      ],
      "name": "Attribute_002"
    },
    {
      "mesh": 0,
      "name": "Attribute_002_New_Material_23_0"
    },
    {
      "children": [
        7
      ],
      "name": "Body_007"
    },
    {
      "mesh": 1,
      "name": "Body_007_New_Material_22_0"
    },
    {
      "children": [
        9
      ],
      "name": "Gloves"
    },
    {
      "mesh": 2,
      "name": "Gloves_New_Material_22_0"
    },
    {
      "children": [
        11,
        13
      ],
      "name": "Hair_004"
    },
    {
      "children": [
        12
      ],
      "name": "CapCap"
    },
    {
      "mesh": 3,
      "name": "CapCap_New_Material_24_0"
    },
    {
      "children": [
        14
      ],
      "name": "Hair_004_1"
    },
    {
      "mesh": 4,
      "name": "Hair_004_1_New_Material_21_0"
    },
    {
      "children": [
        16
      ],
      "name": "Head_1_006"
    },
    {
      "mesh": 5,
      "name": "Head_1_006_New_Material_20_0"
    },
    {
      "children": [
        18
      ],
      "name": "Pantyhose_003"
    },
    {
      "mesh": 6,
      "name": "Pantyhose_003_New_Material_23_0"
    },
    {
      "children": [
        20
      ],
      "name": "Shoes_003"
    },
    {
      "mesh": 7,
      "name": "Shoes_003_New_Material_23_0"
    },
    {
      "children": [
        22
      ],
      "name": "Skirt_005"
    },
    {
      "mesh": 8,
      "name": "Skirt_005_New_Material_23_0"
    },
    {
      "children": [
        24
      ],
      "name": "Sweater_1_004"
    },
    {
      "mesh": 9,
      "name": "Sweater_1_004_New_Material_23_0"
    }
  ],
  "samplers": [
    {
      "magFilter": 9729,
      "minFilter": 9987,
      "wrapS": 10497,
      "wrapT": 10497
    }
  ],
  "scene": 0,
  "scenes": [
    {
      "name": "Sketchfab_Scene",
      "nodes": [
        0
      ]
    }
  ],
  "textures": [
    {
      "sampler": 0,
      "source": 0
    },
    {
      "sampler": 0,
      "source": 1
    },
    {
      "sampler": 0,
      "source": 2
    },
    {
      "sampler": 0,
      "source": 3
    },
    {
      "sampler": 0,
      "source": 4
    }
  ]
}
